<?xml version="1.0" standalone="no"?>
<!DOCTYPE svg PUBLIC "-//W3C//DTD SVG 20010904//EN"
 "http://www.w3.org/TR/2001/REC-SVG-20010904/DTD/svg10.dtd">
<svg version="1.0" xmlns="http://www.w3.org/2000/svg"
 width="972.000000pt" height="972.000000pt" viewBox="0 0 972.000000 972.000000"
 preserveAspectRatio="xMidYMid meet">
<metadata>
Created by potrace 1.14, written by Peter Selinger 2001-2017
</metadata>
<g transform="translate(0.000000,972.000000) scale(0.100000,-0.100000)"
fill="#000000" stroke="none">
<path d="M0 6494 l0 -3226 43 38 c23 20 92 85 152 142 61 58 125 112 143 120
25 12 32 22 32 44 0 15 -5 28 -11 28 -5 0 -7 5 -4 10 6 9 19 -4 51 -49 2 -2
11 -1 20 3 15 6 15 9 -6 28 l-23 22 37 32 c22 19 54 35 77 39 21 4 43 14 48
23 8 14 111 54 119 47 11 -10 -13 -46 -48 -74 l-39 -31 -19 20 -19 21 -6 -21
c-3 -11 -1 -20 4 -20 19 0 8 -27 -16 -38 -35 -16 -44 -14 -21 3 15 11 16 15 5
15 -19 0 -59 -29 -41 -30 7 0 10 -5 7 -11 -7 -11 132 -6 188 7 16 4 33 1 41
-5 12 -10 15 -8 18 11 2 13 11 24 23 26 20 4 20 3 1 -11 -27 -20 -5 -32 59
-32 45 0 51 -3 72 -34 13 -19 23 -45 23 -59 0 -14 11 -39 24 -56 30 -40 58
-95 54 -107 -2 -5 -24 9 -50 31 -44 39 -47 39 -53 19 -4 -13 -2 -25 5 -29 7
-5 11 -19 8 -34 -3 -15 -1 -29 3 -32 5 -3 9 0 9 6 0 6 5 8 10 5 6 -4 1 -15
-12 -26 -13 -12 -18 -18 -12 -15 7 3 14 -1 18 -9 3 -8 12 -15 21 -15 8 0 15
-5 15 -11 0 -6 18 -28 40 -49 22 -21 40 -47 40 -57 0 -13 3 -14 8 -5 6 9 15 4
35 -16 21 -22 28 -39 29 -74 0 -25 -4 -54 -10 -64 -11 -18 -11 -18 -12 4 0 12
-5 22 -11 22 -5 0 -8 4 -5 8 3 5 -4 16 -14 25 -13 11 -20 12 -24 4 -2 -7 -5
-3 -6 8 -1 19 -1 19 -14 2 -8 -10 -12 -27 -9 -37 6 -22 -12 -28 -20 -7 -4 9
-6 9 -6 -1 -1 -7 -13 -17 -28 -23 -16 -7 -23 -13 -15 -16 13 -5 7 -23 -9 -23
-5 0 -9 14 -9 30 0 17 -4 30 -10 30 -5 0 -10 -9 -10 -20 0 -13 -5 -18 -15 -14
-8 4 -15 12 -15 19 0 7 -7 15 -15 19 -11 4 -15 -2 -16 -22 -1 -19 -5 -13 -14
23 l-12 50 -4 -52 c-2 -28 0 -51 5 -50 5 1 13 -14 18 -33 8 -28 7 -36 -8 -47
-25 -18 -43 0 -26 27 10 17 10 20 -3 20 -8 0 -15 6 -15 14 0 8 -5 18 -10 21
-7 4 -8 -14 -5 -52 6 -55 5 -57 -9 -33 -8 14 -15 42 -16 63 0 23 -4 36 -10 32
-5 -3 -10 -15 -10 -26 0 -10 -4 -19 -10 -19 -5 0 -10 -18 -10 -41 0 -22 -4
-38 -8 -35 -5 3 -15 -18 -22 -47 -12 -46 -14 -49 -21 -27 -7 24 -7 24 -8 3 -1
-14 -7 -23 -17 -23 -11 0 -14 5 -9 18 4 9 10 36 12 60 5 38 3 44 -16 49 -11 3
-21 8 -21 12 0 3 -9 17 -20 31 l-21 25 7 -27 c6 -28 -14 -128 -26 -128 -12 0
-50 47 -43 53 3 4 17 7 30 7 31 0 28 10 -12 43 l-33 27 -7 -50 c-4 -29 -3 -56
3 -63 16 -20 5 -119 -16 -139 -17 -18 -18 -16 -18 53 -1 39 -6 74 -11 78 -18
11 -33 49 -33 84 0 19 -3 49 -6 66 -5 25 -9 29 -20 20 -10 -8 -11 -15 -4 -24
6 -7 13 -65 17 -129 3 -64 10 -116 14 -116 5 0 6 6 3 13 -2 7 -1 24 4 38 9 22
10 21 10 -13 0 -21 -6 -42 -14 -49 -8 -6 -14 -8 -14 -3 -1 5 -7 -6 -15 -24
-21 -47 -37 -40 -20 9 18 49 20 129 4 129 -7 0 -9 10 -5 24 3 14 1 28 -5 32
-9 5 -10 -9 -5 -54 7 -64 -7 -146 -30 -173 -8 -8 -14 -20 -14 -26 0 -6 -7 -16
-15 -23 -13 -11 -15 -8 -16 21 l-1 34 -12 -35 c-9 -24 -15 -30 -19 -20 -4 10
-6 8 -6 -7 -1 -12 4 -25 9 -28 12 -7 13 -25 2 -25 -5 0 -14 16 -22 35 -8 19
-20 35 -27 35 -20 0 -16 17 22 97 39 82 39 83 25 83 -5 0 -10 -6 -10 -14 0 -7
-7 -19 -15 -26 -8 -7 -15 -21 -15 -31 0 -26 -21 -69 -31 -63 -5 3 -4 15 3 27
10 21 10 21 -7 7 -10 -8 -39 -34 -64 -57 -25 -24 -49 -43 -53 -43 -5 0 -8 -7
-8 -16 0 -11 16 0 45 30 54 54 75 59 75 16 0 -16 5 -30 10 -30 15 0 12 -56 -5
-70 -12 -10 -13 -6 -10 27 l5 38 -13 -37 c-6 -20 -16 -40 -21 -45 -5 -5 -6 -3
-2 5 4 6 4 12 1 12 -3 0 -11 -13 -16 -30 -6 -16 -18 -30 -26 -30 -9 0 -12 -6
-8 -19 7 -23 -20 -49 -28 -27 -3 8 -1 17 6 20 7 2 3 5 -8 5 -17 1 -15 5 15 31
19 16 32 31 29 34 -2 3 -20 -8 -38 -25 -32 -27 -33 -30 -21 -59 10 -23 10 -34
1 -43 -8 -8 -11 -319 -11 -1194 l0 -1183 4860 0 4860 0 0 754 c0 512 -3 757
-10 761 -6 4 -8 15 -5 24 6 20 -18 46 -34 37 -5 -4 -13 3 -16 14 -4 12 -18 25
-31 31 -14 5 -22 13 -19 19 3 5 0 10 -8 10 -8 0 -30 14 -48 32 -28 26 -31 33
-17 36 22 4 12 32 -12 32 -10 0 -28 11 -41 25 -15 15 -35 25 -52 25 -20 0 -30
6 -34 20 -3 11 -10 20 -16 20 -6 0 -7 3 -4 7 10 9 -33 52 -47 47 -6 -2 -38 17
-70 43 -44 36 -63 59 -74 90 -7 24 -20 43 -28 43 -18 0 -83 41 -111 72 -59 62
-83 92 -88 108 -3 10 -19 23 -35 30 -16 7 -32 20 -35 30 -3 9 -25 27 -49 40
-41 20 -56 38 -70 83 -8 25 -26 12 -26 -19 0 -29 -26 -33 -35 -4 -3 11 -22 37
-41 57 -21 22 -31 39 -24 41 7 3 17 -1 23 -7 6 -6 21 -11 34 -11 13 0 23 -4
23 -10 0 -21 20 -9 26 15 3 14 14 25 23 26 9 0 2 7 -17 16 -19 10 -31 23 -30
32 3 17 1 17 -84 5 -39 -5 -48 -4 -48 8 0 9 -7 21 -15 28 -12 10 -15 10 -15
-4 0 -9 6 -16 13 -16 9 0 9 -2 -1 -9 -7 -4 -12 -14 -10 -22 5 -21 -59 -15 -85
9 -24 21 -111 62 -133 62 -8 0 -19 9 -26 20 -7 11 -21 20 -30 20 -10 0 -18 5
-18 11 0 5 -5 7 -11 4 -5 -4 -19 3 -30 16 -10 12 -19 18 -19 14 0 -17 -81 70
-101 108 -34 67 -41 129 -20 184 10 26 27 77 36 113 9 36 21 74 25 85 11 29
90 197 101 215 5 8 13 24 18 36 9 20 81 84 95 84 3 0 14 8 25 17 10 10 41 34
69 53 62 42 153 107 167 118 6 5 29 17 53 27 23 10 42 22 42 27 0 4 9 8 19 8
11 0 23 5 26 10 10 17 25 11 19 -8 -5 -15 -4 -15 6 1 6 10 24 23 38 29 30 13
26 12 68 4 26 -6 32 -3 44 19 11 20 19 25 37 20 13 -3 36 1 53 10 18 9 31 11
35 5 3 -6 13 -10 21 -10 8 0 12 5 9 10 -3 6 2 18 11 28 17 16 18 16 11 0 -5
-13 -1 -18 13 -18 11 0 20 5 20 10 0 6 10 8 24 4 16 -4 25 -1 29 10 8 21 37
21 37 0 0 -8 5 -12 10 -9 6 3 10 -3 10 -14 0 -32 18 -25 25 9 4 16 11 32 16
35 11 7 29 -37 29 -72 0 -21 2 -24 15 -13 8 7 15 20 15 30 0 29 10 29 38 2 15
-15 34 -28 42 -30 8 -2 18 -8 21 -14 3 -5 13 8 22 30 9 22 23 42 33 46 11 4
15 2 11 -8 -6 -15 36 -31 54 -20 13 8 57 -42 71 -80 9 -24 12 -26 20 -12 5 9
13 14 19 11 5 -4 9 -2 9 4 0 5 -4 13 -10 16 -13 8 -13 55 0 55 5 0 14 -8 19
-17 7 -12 10 919 11 2920 l0 2937 -4860 0 -4860 0 0 -3226z m6561 640 c16 -19
59 -183 49 -189 -3 -2 -35 -5 -71 -6 -35 -1 -73 -5 -84 -9 -20 -8 -20 -8 0
-15 11 -4 37 -13 58 -21 33 -12 38 -12 43 1 10 24 34 17 52 -15 9 -16 23 -30
30 -30 7 0 15 -7 18 -15 4 -8 17 -15 31 -15 25 0 133 -99 133 -123 0 -6 18
-32 40 -57 58 -65 63 -71 56 -77 -3 -3 6 -19 20 -36 16 -19 22 -36 19 -48 -4
-11 -2 -19 4 -19 6 0 11 -10 11 -22 0 -17 3 -19 12 -10 19 19 30 14 23 -9 -5
-13 -3 -19 3 -15 5 3 16 -1 23 -10 10 -12 10 -20 1 -34 -9 -15 -7 -19 13 -24
14 -4 58 -40 99 -81 42 -41 68 -72 58 -69 -12 4 -10 -1 7 -15 13 -12 31 -21
41 -21 10 0 20 -6 23 -14 4 -9 15 -12 32 -9 18 4 31 0 41 -13 14 -18 14 -18
12 1 -2 15 2 19 16 17 15 -3 13 2 -10 21 -17 14 -39 43 -49 64 -11 21 -26 42
-32 46 -7 4 -13 15 -13 22 0 8 -4 15 -10 15 -5 0 -10 8 -10 18 0 9 -9 28 -20
42 -11 14 -20 28 -20 32 0 4 -11 19 -25 34 -14 15 -25 31 -25 37 0 5 -31 56
-70 113 -38 58 -70 111 -70 119 0 7 -5 17 -10 20 -8 5 -7 11 1 21 9 11 8 14
-5 14 -9 0 -16 7 -16 16 0 10 -5 14 -15 10 -8 -3 -27 -1 -42 5 -18 7 -30 6
-37 -1 -15 -15 -56 -12 -56 5 0 16 72 39 100 32 10 -2 17 2 17 10 0 7 -7 11
-16 9 -9 -3 -33 -8 -54 -12 -20 -3 -40 -10 -43 -15 -13 -21 -44 -5 -103 55
-61 61 -65 68 -69 120 -4 46 0 62 22 100 14 25 31 48 37 52 6 4 75 8 154 11
l142 4 11 -28 c25 -64 52 -206 46 -244 l-7 -39 -55 0 c-47 0 -53 -2 -42 -15 7
-8 16 -12 22 -9 5 3 14 1 21 -4 8 -6 35 -4 77 5 128 28 147 24 222 -51 24 -24
49 -45 57 -48 11 -3 11 -7 -3 -20 -23 -23 -21 -46 2 -25 26 24 35 21 29 -9 -3
-18 0 -27 12 -32 9 -3 22 -14 29 -24 7 -10 22 -18 33 -18 12 0 19 -7 19 -19 0
-11 5 -23 10 -26 6 -4 8 -11 5 -16 -4 -5 -1 -9 4 -9 6 0 11 5 11 10 0 6 5 10
10 10 6 0 10 -6 8 -12 -1 -7 6 -25 15 -40 10 -14 17 -34 15 -44 -2 -12 5 -20
22 -24 21 -5 25 -12 23 -37 -2 -23 2 -32 17 -36 13 -3 20 -14 20 -30 0 -18 9
-31 29 -43 15 -9 36 -31 46 -48 10 -17 25 -38 34 -47 16 -17 30 -34 97 -121
20 -27 40 -48 45 -48 4 0 17 -16 30 -36 12 -20 32 -47 44 -61 40 -45 55 -63
56 -68 5 -30 14 -45 25 -45 8 0 13 -3 12 -7 -8 -32 37 -77 48 -48 4 8 15 15
26 15 11 0 16 -4 12 -11 -4 -8 0 -9 15 -4 11 3 21 2 21 -3 0 -5 11 -10 25 -11
49 -3 54 -4 59 -18 3 -7 13 -13 21 -13 9 0 13 -4 10 -10 -7 -11 25 -70 37 -70
4 0 8 -8 8 -19 0 -10 7 -24 15 -31 8 -7 15 -22 15 -34 0 -25 17 -50 76 -113
27 -29 40 -51 37 -63 -3 -12 3 -19 20 -24 28 -7 39 -39 25 -76 -6 -16 -5 -21
4 -18 14 5 50 -27 40 -36 -3 -3 5 -17 18 -31 29 -31 17 -49 -33 -51 -30 -1
-33 2 -29 22 4 22 2 22 -22 11 -17 -8 -21 -13 -11 -15 8 -2 13 -7 10 -12 -3
-5 4 -14 15 -20 15 -8 20 -8 20 2 1 8 5 7 14 -5 8 -10 20 -15 30 -11 9 3 16 1
16 -5 0 -6 -7 -11 -15 -11 -9 0 -18 -7 -21 -15 -4 -8 -13 -15 -21 -15 -8 0
-11 -5 -7 -12 5 -8 2 -9 -11 -4 -15 5 -16 4 -6 -8 11 -13 15 -12 32 5 22 22
33 18 71 -26 17 -19 19 -19 32 -2 7 9 16 17 20 17 13 0 -4 -53 -21 -66 -16
-12 -14 -13 20 -14 42 0 47 -12 17 -38 l-21 -17 21 -5 c29 -7 25 -26 -5 -22
-12 2 -26 -2 -30 -8 -10 -16 3 -26 16 -13 6 6 28 9 50 6 22 -3 39 -1 39 4 0 6
14 10 30 11 17 0 28 -4 25 -9 -4 -5 -1 -9 4 -9 19 0 12 -17 -9 -23 -11 -3 -20
-9 -20 -14 0 -4 9 -14 20 -21 17 -11 20 -10 20 8 0 13 5 18 15 14 18 -7 20
-35 3 -52 -8 -8 -9 -15 -3 -20 28 -20 38 -42 25 -57 -7 -9 -10 -18 -6 -22 3
-4 13 3 22 15 15 23 34 29 34 13 0 -5 -6 -16 -14 -24 -12 -12 -11 -16 11 -32
15 -12 23 -26 20 -37 -3 -10 -2 -20 3 -23 4 -2 5 -15 3 -29 -7 -36 14 -41 32
-6 17 33 30 40 23 12 -3 -10 0 -23 6 -29 35 -37 37 -53 12 -79 -15 -15 -126
-35 -154 -28 -16 5 -27 1 -38 -12 -13 -18 -14 -17 -8 9 5 22 3 26 -10 21 -9
-3 -16 -11 -16 -18 0 -23 -19 -38 -50 -42 -38 -4 -94 -64 -61 -64 5 0 16 -3
24 -6 12 -4 14 0 10 17 -5 18 -3 21 10 16 9 -3 19 -1 23 4 9 15 22 -1 28 -34
3 -20 0 -30 -15 -37 -14 -8 -19 -7 -19 3 0 8 -7 14 -15 14 -18 0 -20 -24 -2
-30 6 -2 -6 -13 -28 -23 -22 -11 -42 -21 -45 -24 -3 -3 -18 -12 -35 -20 -16
-8 -39 -21 -49 -30 -12 -9 -17 -10 -12 -2 5 8 -2 22 -17 37 l-24 25 -90 -59
c-98 -65 -126 -91 -99 -91 9 0 20 -8 23 -17 4 -10 11 -22 17 -26 7 -5 -25 -41
-84 -97 l-95 -90 45 -45 45 -45 50 40 c28 22 61 44 74 50 13 6 37 22 54 36 39
33 73 29 70 -9 -1 -19 3 -27 15 -27 18 0 -229 -241 -259 -252 -24 -9 -132 73
-187 142 l-41 51 -75 -89 c-94 -110 -111 -134 -180 -252 -65 -112 -101 -195
-122 -288 -20 -86 -27 -94 -62 -76 -15 8 -44 14 -64 14 -24 0 -38 5 -38 13 0
9 -2 9 -8 -1 -7 -10 -15 -10 -37 -2 -15 6 -30 8 -32 6 -3 -3 -17 0 -32 6 -14
6 -35 12 -46 14 -57 10 -160 43 -163 52 -2 6 -9 9 -17 6 -7 -3 -23 4 -35 16
-11 11 -34 23 -50 27 -17 3 -30 10 -30 15 0 6 -7 5 -16 -2 -13 -11 -16 -10
-20 6 -6 24 -65 51 -128 58 -26 3 -56 10 -66 16 -11 6 -20 7 -20 3 0 -4 -5 0
-10 9 -6 9 -27 22 -48 29 -20 6 -48 20 -62 29 -14 10 -36 21 -50 25 -14 4 -32
13 -40 20 -8 6 -31 17 -50 24 -43 16 -191 90 -204 102 -6 5 -18 9 -28 9 -31 0
-125 49 -162 84 -20 18 -36 32 -36 29 0 -5 -11 4 -66 51 -23 20 -46 36 -50 36
-5 0 -17 8 -25 18 -9 9 -26 24 -37 32 -12 8 -22 17 -22 21 0 11 -158 169 -170
169 -5 0 -10 5 -10 12 0 16 -41 58 -56 58 -7 0 -18 9 -24 20 -6 11 -17 20 -25
20 -9 0 -23 13 -33 29 -9 15 -21 29 -25 29 -4 1 -28 18 -52 38 -45 37 -58 64
-30 64 12 0 11 4 -5 20 -18 18 -28 71 -20 105 1 6 5 28 7 50 3 22 9 45 13 50
4 6 7 43 7 82 0 71 -18 147 -53 222 -9 18 -17 54 -17 79 -2 46 -1 47 34 56 53
13 104 1 117 -29 6 -14 18 -25 26 -25 9 0 13 -6 10 -14 -4 -10 3 -16 23 -18
15 -2 28 -7 28 -13 1 -20 20 -43 40 -47 11 -2 20 -8 20 -13 2 -30 20 -56 51
-76 21 -12 34 -28 32 -38 -1 -9 1 -22 5 -28 5 -8 3 -13 -5 -13 -19 -1 22 -30
42 -30 9 0 26 -8 38 -18 11 -10 33 -27 48 -38 14 -10 46 -38 70 -61 24 -24 52
-43 62 -43 9 0 60 -20 113 -44 125 -56 154 -61 203 -36 64 32 78 62 71 150
-11 125 -136 519 -194 608 -17 27 -31 52 -31 56 0 3 -35 79 -77 169 -96 203
-153 282 -153 211 0 -20 -4 -24 -17 -20 -47 14 -151 36 -175 36 -33 0 -42 -21
-14 -35 16 -8 21 -19 19 -44 -1 -24 2 -30 8 -20 7 12 9 12 9 -1 0 -8 8 0 17
18 9 18 21 31 27 29 15 -5 20 -37 8 -49 -6 -6 -8 0 -4 19 6 35 -3 28 -12 -9
-5 -24 -3 -28 14 -28 25 0 27 -27 3 -33 -13 -3 -11 -5 6 -6 16 -1 21 -5 17
-16 -3 -8 -1 -15 4 -15 6 0 10 -7 10 -16 0 -38 -19 -42 -291 -49 -425 -11
-539 -12 -539 -3 0 4 -7 8 -15 8 -8 0 -15 -4 -15 -10 0 -5 -4 -10 -9 -10 -5 0
-4 11 2 25 7 14 20 25 31 25 15 0 16 3 6 15 -10 12 -10 15 3 15 9 0 21 9 27
20 11 21 11 21 31 -2 13 -16 17 -18 13 -5 -4 12 -1 17 13 17 24 0 59 39 55 60
-2 10 5 16 18 16 11 0 20 -4 20 -8 0 -4 5 -8 10 -8 6 0 10 9 10 19 0 15 6 19
23 17 13 -1 28 -5 34 -9 6 -4 15 -2 18 4 8 12 -1 23 -18 25 -7 0 -20 2 -29 2
-10 1 -18 9 -18 17 0 13 -20 15 -123 15 l-124 0 4 28 c2 15 -5 75 -15 133 -11
58 -18 118 -15 132 5 25 3 27 -27 27 -29 0 -32 -2 -25 -22 10 -31 44 -237 44
-270 l1 -27 -219 3 c-120 2 -223 6 -228 9 -6 4 -13 35 -16 69 -4 35 -11 87
-16 117 -8 43 -7 59 5 84 13 24 13 31 3 38 -7 4 -17 5 -21 3 -4 -3 -8 0 -8 5
0 6 -7 11 -15 11 -8 0 -15 4 -15 9 0 12 -29 41 -40 41 -5 0 2 -31 15 -69 30
-88 47 -200 39 -251 -6 -38 -17 -50 -28 -32 -3 5 -19 7 -36 4 -20 -3 -30 0
-30 8 0 7 -13 25 -29 41 -22 20 -44 29 -88 35 -42 5 -52 9 -34 13 13 4 29 15
35 26 6 11 15 23 20 26 5 4 6 14 3 23 -3 8 -2 18 4 21 5 4 7 11 4 16 -4 5 0 9
7 9 10 0 10 2 -1 9 -10 6 -10 10 -1 16 11 7 9 30 -6 68 -3 10 3 17 20 21 65
16 77 25 66 46 -8 15 -8 20 2 20 7 1 -4 10 -24 21 -21 11 -38 26 -38 34 0 16
-50 66 -60 60 -18 -11 -42 36 -42 79 0 42 -2 46 -24 46 -15 0 -37 15 -62 41
-52 58 -51 56 -63 173 -10 97 -9 108 10 151 11 25 30 60 42 77 21 29 25 30 76
25 30 -3 93 -2 140 3 55 6 91 6 99 -1 22 -18 62 -164 74 -266 9 -76 16 -103
26 -103 17 0 18 50 3 155 -11 72 -10 77 14 128 45 92 51 95 169 97 57 1 123 2
147 3 30 1 46 -3 51 -13 20 -37 50 -154 66 -252 12 -75 21 -108 31 -108 16 0
16 -7 -2 129 -14 110 -14 113 6 154 48 94 52 97 134 97 l74 0 3 43 c2 23 -1
84 -5 136 -7 77 -6 101 7 136 30 78 43 84 196 86 112 1 136 -1 145 -15 11 -14
19 -55 57 -288 13 -78 20 -93 42 -85 14 6 16 22 10 130 -6 113 -4 128 16 174
12 29 29 58 38 66 19 16 278 32 300 18 16 -10 63 -237 56 -267 -7 -29 11 -39
47 -24 27 12 42 50 20 50 -6 0 -9 35 -8 79 2 71 5 84 32 123 l31 43 118 7 c65
4 121 9 124 12 11 11 40 6 53 -10z m1749 -8 c0 -3 -4 -8 -10 -11 -5 -3 -10 -1
-10 4 0 6 5 11 10 11 6 0 10 -2 10 -4z m70 -11 c0 -10 -10 -15 -32 -14 -22 1
-26 3 -13 6 11 3 24 9 30 14 13 12 15 11 15 -6z m-829 -18 c-1 -12 -15 -9 -19
4 -3 6 1 10 8 8 6 -3 11 -8 11 -12z m62 -4 c-7 -2 -21 -2 -30 0 -10 3 -4 5 12
5 17 0 24 -2 18 -5z m-4343 -37 c7 -10 13 -68 16 -158 3 -79 8 -159 12 -178 9
-42 30 -48 136 -39 77 6 106 -2 106 -29 0 -9 12 -40 27 -67 23 -43 28 -64 31
-156 4 -93 2 -107 -13 -113 -25 -9 -34 1 -41 45 l-7 39 -48 -6 c-65 -9 -159 3
-153 20 3 7 -4 21 -16 31 -11 10 -20 24 -20 32 0 7 -9 21 -20 30 -11 10 -20
23 -20 30 0 7 -4 13 -8 13 -8 0 -25 32 -86 161 -34 72 -101 136 -153 144 -110
18 -111 19 -89 97 29 106 31 107 143 111 54 1 119 4 144 5 31 1 51 -3 59 -12z
m-976 -9 c14 -10 20 -32 24 -85 4 -60 7 -69 17 -56 17 24 24 8 31 -75 l7 -72
-37 6 c-60 12 -160 10 -181 -2 -16 -10 -10 -11 34 -6 38 4 52 3 47 -5 -3 -6
-2 -13 4 -17 26 -16 7 -30 -42 -30 -29 0 -66 -4 -81 -8 -25 -7 -26 -9 -12 -23
8 -8 15 -24 15 -35 0 -10 5 -19 11 -19 6 0 9 8 7 18 -4 15 1 18 31 19 20 1 39
-4 43 -10 4 -7 8 -41 8 -76 0 -45 5 -70 16 -83 14 -14 14 -20 4 -33 -8 -10
-11 -33 -8 -65 3 -28 0 -54 -6 -60 -6 -6 -12 -54 -13 -108 -2 -135 -1 -132
-17 -132 -22 0 -28 -74 -10 -135 8 -30 19 -55 24 -55 5 0 15 -12 23 -26 12
-23 15 -24 26 -10 8 9 20 16 28 16 28 0 55 88 65 209 12 143 16 164 29 155 6
-3 9 -17 6 -30 -2 -13 -1 -24 2 -24 4 0 21 69 40 153 18 83 41 190 51 237 l18
85 -40 35 -40 36 7 79 c7 88 38 207 57 222 7 6 75 13 151 15 162 6 167 4 167
-75 0 -54 19 -106 21 -57 0 23 1 23 8 5 10 -25 3 -45 -15 -45 -8 0 -14 -4 -14
-9 0 -5 -10 -11 -22 -14 -12 -4 -19 -9 -16 -12 3 -4 16 -2 28 5 30 16 110 -10
110 -35 0 -9 -12 -10 -47 -3 -63 12 -133 15 -133 6 0 -5 -9 -8 -19 -8 -11 0
-22 -4 -25 -9 -3 -4 25 -11 62 -14 89 -7 101 -13 119 -58 10 -26 23 -41 39
-45 30 -8 31 -20 2 -29 -15 -4 -18 -8 -10 -12 9 -3 10 -9 2 -18 -8 -9 -6 -14
5 -19 9 -3 13 -11 10 -16 -4 -6 -2 -17 5 -25 8 -10 8 -24 -1 -57 -13 -44 -29
-72 -29 -49 0 7 -5 9 -10 6 -6 -3 -7 -17 -4 -31 4 -15 2 -24 -6 -24 -7 0 -10
-7 -6 -17 5 -15 4 -15 -9 1 -14 19 -15 19 -15 -7 0 -15 -5 -27 -11 -27 -7 0
-8 -16 -3 -45 4 -32 3 -45 -5 -45 -8 0 -6 -11 6 -31 18 -30 18 -31 -9 -50 -18
-14 -24 -25 -21 -40 3 -12 11 -18 19 -15 8 3 14 1 14 -4 0 -6 -6 -10 -14 -10
-25 0 -37 -24 -22 -46 13 -18 11 -22 -21 -44 -32 -22 -33 -25 -15 -31 16 -6
20 -17 21 -61 1 -74 41 -231 65 -255 3 -3 6 -17 6 -29 0 -24 47 -64 67 -57 6
2 28 -3 48 -11 35 -15 39 -14 84 8 26 14 63 42 82 63 76 84 361 512 351 528
-4 5 -8 2 -10 -8 -2 -9 -8 -15 -13 -11 -5 3 -8 0 -7 -7 2 -6 -3 -14 -9 -16 -7
-3 -13 3 -13 12 0 9 -4 13 -10 10 -9 -5 -3 53 6 64 2 2 -6 12 -18 23 -26 23
-17 33 30 34 93 2 148 8 161 18 7 5 22 15 33 21 12 5 21 12 21 15 0 3 -4 49
-8 102 -6 91 -5 100 20 157 38 84 52 95 117 88 29 -3 90 0 135 5 94 12 107 7
117 -44 4 -18 15 -51 26 -73 20 -43 40 -205 24 -205 -5 0 -35 7 -67 14 -67 16
-143 11 -164 -10 -8 -8 -34 -14 -59 -14 -51 0 -58 -15 -12 -26 18 -3 38 -14
45 -24 7 -9 25 -23 41 -29 32 -13 60 -77 42 -95 -16 -16 -11 -25 10 -19 15 4
20 0 20 -15 0 -11 3 -28 7 -38 5 -14 2 -16 -22 -10 -25 6 -27 5 -16 -8 8 -9
10 -16 6 -16 -4 0 -2 -7 5 -15 11 -13 8 -21 -16 -48 -16 -17 -32 -33 -36 -35
-5 -2 -8 -12 -8 -22 0 -31 -11 -49 -26 -43 -8 3 -14 -1 -14 -10 0 -8 -11 -22
-25 -31 -14 -9 -23 -21 -19 -27 8 -14 -5 -61 -16 -54 -5 3 -11 1 -15 -5 -3 -5
-1 -10 4 -10 6 0 11 -5 11 -11 0 -6 -7 -9 -15 -5 -11 4 -15 -2 -15 -23 0 -16
-7 -34 -15 -41 -8 -7 -13 -16 -10 -20 5 -9 -40 -71 -60 -83 -8 -4 -15 -19 -15
-33 0 -17 -7 -28 -20 -31 -20 -5 -29 -33 -11 -33 6 0 4 -10 -2 -22 -18 -35
-59 -78 -73 -78 -7 0 -22 -12 -33 -27 -12 -16 -25 -33 -30 -40 -6 -6 -22 -49
-37 -95 -14 -45 -29 -90 -32 -98 -3 -8 -6 -19 -7 -25 -3 -24 -18 -81 -25 -95
-5 -8 -16 -42 -26 -75 -9 -33 -20 -62 -24 -65 -4 -3 -15 -27 -25 -55 -10 -27
-24 -59 -31 -70 -7 -11 -25 -69 -39 -130 -15 -60 -31 -115 -36 -122 -7 -7 -6
-12 2 -15 13 -4 10 -14 -21 -65 -14 -23 -17 -39 -11 -60 4 -15 7 -37 5 -47 -1
-11 2 -28 7 -38 6 -12 6 -18 -1 -18 -13 0 -13 -27 1 -32 7 -2 7 -12 0 -31 -6
-16 -15 -26 -20 -23 -13 9 -32 -19 -25 -38 4 -11 1 -16 -10 -16 -10 0 -16 -9
-16 -25 0 -14 -4 -25 -10 -25 -5 0 -10 -7 -10 -15 0 -8 -7 -15 -16 -15 -12 0
-15 -6 -10 -25 5 -18 2 -25 -9 -25 -8 0 -15 -4 -15 -10 0 -14 -50 -61 -51 -47
0 7 -5 2 -11 -10 -6 -13 -19 -23 -30 -23 -12 0 -18 -7 -18 -24 0 -21 -4 -23
-40 -21 -29 2 -47 10 -65 29 -15 16 -30 24 -40 20 -9 -4 -15 -3 -14 2 4 25 -3
42 -25 54 -31 16 -55 -2 -48 -37 3 -17 0 -23 -13 -23 -12 0 -15 5 -11 17 4 10
4 14 0 11 -4 -4 -18 2 -32 12 -27 21 -52 26 -52 10 0 -5 7 -10 17 -10 24 0 10
-10 -23 -16 -16 -3 -32 -10 -35 -16 -4 -6 -11 -3 -18 8 -10 19 -10 19 -11 0 0
-15 -3 -16 -15 -6 -8 7 -15 19 -15 27 0 8 -4 11 -10 8 -5 -3 -10 -2 -10 3 0 5
-9 12 -20 15 -17 4 -19 2 -13 -21 6 -24 5 -26 -10 -13 -10 7 -17 21 -17 31 0
16 -19 30 -41 30 -5 0 -4 -11 1 -26 14 -35 12 -53 -3 -34 -7 8 -18 15 -26 15
-8 0 -15 10 -16 22 -2 33 -12 38 -39 24 -13 -8 -33 -10 -46 -6 l-22 7 22 15
c30 21 11 38 -24 22 -23 -11 -30 -10 -56 9 -16 12 -39 22 -52 22 -17 0 -19 3
-10 9 21 13 -37 30 -66 20 -13 -5 -28 -6 -34 -3 -5 3 -24 8 -41 10 -18 3 -59
16 -92 29 -85 34 -157 53 -255 65 -47 6 -103 15 -125 20 -22 5 -87 9 -145 8
-58 0 -94 -3 -80 -5 67 -12 100 -25 100 -40 0 -11 -6 -14 -22 -10 -13 3 -46
12 -75 19 -28 7 -55 16 -59 20 -11 12 -57 -3 -82 -25 -16 -15 -33 -20 -62 -18
-34 2 -45 -3 -85 -40 -38 -35 -43 -44 -30 -49 16 -5 16 -7 1 -19 -14 -12 -19
-11 -35 8 -18 20 -23 21 -60 10 -22 -6 -54 -27 -72 -45 -30 -31 -30 -33 -8
-27 24 6 24 6 5 -15 -24 -27 -33 -28 -41 -2 -10 32 -69 20 -134 -27 l-23 -17
7 74 c15 166 65 327 157 515 86 174 130 278 179 422 21 62 70 174 109 248 52
99 70 142 66 159 -4 15 0 28 8 35 12 10 14 8 10 -11 -12 -61 62 115 106 254
28 87 79 217 113 290 35 73 76 163 92 201 41 92 158 214 239 247 l56 24 0 50
c0 28 3 61 6 74 6 19 2 22 -22 22 -36 0 -41 4 -83 59 -34 43 -35 43 -82 37
-26 -4 -50 -3 -53 2 -3 5 -1 63 4 128 10 123 34 240 54 261 13 13 284 22 304
10 7 -5 12 -32 12 -73 0 -36 4 -64 10 -64 6 0 10 10 10 22 0 18 15 18 15 0 0
-4 4 -12 7 -18 10 -15 23 -134 23 -202 0 -47 2 -52 23 -52 21 0 22 4 22 78 0
134 34 292 67 311 8 4 45 6 82 4 53 -4 114 2 182 16 3 0 13 -5 23 -12z m2206
-17 c0 -11 -2 -20 -4 -20 -2 0 -6 9 -9 20 -3 11 -1 20 4 20 5 0 9 -9 9 -20z
m484 5 c5 -13 -5 -15 -42 -6 -2 1 0 6 3 11 9 15 32 12 39 -5z m89 0 c1 -5 -6
-11 -15 -13 -11 -2 -18 3 -18 13 0 17 30 18 33 0z m-1053 1 c0 -2 -7 -6 -15
-10 -8 -3 -15 -1 -15 4 0 6 7 10 15 10 8 0 15 -2 15 -4z m110 0 c0 -2 3 -13 7
-23 6 -15 4 -16 -9 -5 -13 10 -17 10 -21 0 -2 -7 -7 -10 -11 -7 -10 10 5 39
20 39 8 0 14 -2 14 -4z m489 -12 c3 -2 0 -9 -6 -15 -15 -15 -53 -2 -53 18 0
12 6 14 27 8 16 -4 30 -9 32 -11z m-953 -8 c19 -20 18 -26 -6 -26 -13 0 -20 7
-20 20 0 24 6 25 26 6z m-2338 -111 c2 -72 -1 -118 -9 -132 -15 -28 -65 -43
-139 -43 -101 0 -119 14 -77 60 13 14 22 31 19 39 -2 7 0 16 5 20 6 3 18 21
27 39 9 17 21 32 27 32 6 0 9 6 6 14 -8 19 17 53 27 37 4 -6 12 -9 17 -5 21
12 -5 24 -53 24 -28 0 -48 3 -45 7 8 7 121 21 162 19 l30 -1 3 -110z m2702
100 c0 -17 -25 -20 -35 -5 -3 6 1 7 9 4 9 -3 16 -1 16 5 0 6 2 11 5 11 3 0 5
-7 5 -15z m-468 -17 c-7 -7 -12 -8 -12 -2 0 14 12 26 19 19 2 -3 -1 -11 -7
-17z m-2432 -32 c0 -8 -4 -18 -10 -21 -5 -3 -10 3 -10 14 0 12 5 21 10 21 6 0
10 -6 10 -14z m6913 -168 c17 -13 87 -206 87 -239 0 -9 -7 -22 -15 -29 -12
-10 -29 -7 -89 15 -69 25 -85 27 -255 28 -99 1 -181 4 -181 8 0 3 -29 35 -65
70 -35 35 -65 67 -65 70 0 4 13 21 29 38 l29 31 149 1 c81 1 186 4 233 8 47 5
94 9 106 9 11 1 28 -4 37 -10z m-7020 -21 c12 -19 12 -31 2 -77 -22 -104 -88
-220 -72 -127 3 17 9 55 13 82 3 28 10 55 14 60 5 6 11 27 15 48 4 20 8 37 10
37 1 0 9 -10 18 -23z m7417 -37 c0 -5 -5 -10 -11 -10 -5 0 -7 5 -4 10 3 6 8
10 11 10 2 0 4 -4 4 -10z m-7211 -170 c-6 -16 -12 -30 -14 -30 -1 0 -5 14 -7
30 -4 24 -1 30 13 30 16 0 17 -4 8 -30z m121 -7 c0 -20 -3 -24 -11 -16 -7 7
-9 19 -6 27 10 24 17 19 17 -11z m-40 -3 c0 -11 -2 -20 -4 -20 -2 0 -6 9 -9
20 -3 11 -1 20 4 20 5 0 9 -9 9 -20z m67 -2 c-3 -8 -6 -5 -6 6 -1 11 2 17 5
13 3 -3 4 -12 1 -19z m-97 -8 c0 -5 -4 -10 -10 -10 -5 0 -10 5 -10 10 0 6 5
10 10 10 6 0 10 -4 10 -10z m6685 -5 c11 -1 23 -3 27 -4 4 0 16 -11 27 -22 15
-17 18 -26 10 -40 -7 -14 -6 -19 3 -20 24 -1 88 -88 88 -120 0 -18 4 -28 10
-24 6 3 10 1 10 -4 0 -6 0 -14 1 -18 0 -5 11 -14 25 -21 13 -7 24 -19 24 -27
0 -8 7 -15 16 -15 12 0 14 -3 6 -13 -8 -10 -6 -16 9 -25 13 -9 18 -19 14 -32
-4 -12 2 -25 15 -38 11 -11 18 -26 15 -34 -4 -10 1 -17 12 -20 18 -5 56 -71
68 -119 5 -21 1 -29 -20 -43 -16 -11 -33 -15 -43 -10 -9 4 -22 6 -29 5 -6 -1
-14 3 -18 8 -3 6 -12 8 -20 4 -8 -3 -15 -1 -15 5 0 5 -15 13 -34 16 -37 7
-156 117 -156 145 0 9 -14 36 -31 61 -17 25 -33 57 -36 73 -3 15 -9 27 -14 27
-5 0 -9 13 -9 28 0 15 -4 32 -9 38 -5 5 -14 26 -21 47 -6 20 -15 37 -19 37
-12 0 -41 81 -41 113 0 16 -4 26 -10 22 -5 -3 -7 0 -4 9 6 16 52 25 99 18 17
-2 39 -5 50 -7z m-6967 -194 c-7 -9 -13 -17 -14 -18 0 -2 -1 10 -1 27 0 24 3
27 14 19 11 -9 11 -15 1 -28z m262 -150 c0 -5 -8 -8 -17 -7 -10 0 -18 -6 -18
-14 0 -8 8 -14 18 -14 9 1 17 -2 17 -7 0 -14 -48 -11 -53 4 -7 20 12 47 33 47
11 0 20 -4 20 -9z m138 -21 c5 -13 3 -13 -11 -1 -18 14 -20 12 -30 -34 -3 -13
-5 -9 -6 11 0 17 2 34 6 38 11 11 36 3 41 -14z m-101 -22 c-3 -7 -5 -2 -5 12
0 14 2 19 5 13 2 -7 2 -19 0 -25z m30 0 c-3 -7 -5 -2 -5 12 0 14 2 19 5 13 2
-7 2 -19 0 -25z m-347 -184 c0 -8 -4 -14 -10 -14 -5 0 -10 9 -10 21 0 11 5 17
10 14 6 -3 10 -13 10 -21z m-23 -66 c-3 -8 -6 -5 -6 6 -1 11 2 17 5 13 3 -3 4
-12 1 -19z m-4 -303 c4 -8 2 -17 -2 -20 -5 -2 -12 -21 -16 -41 -10 -54 -18
-33 -10 25 7 51 18 64 28 36z m4900 -60 c-3 -9 -8 -14 -10 -11 -3 3 -2 9 2 15
9 16 15 13 8 -4z m-4923 -376 c0 -6 -4 -7 -10 -4 -5 3 -10 11 -10 16 0 6 5 7
10 4 6 -3 10 -11 10 -16z m4500 -330 c6 -10 10 -28 9 -41 l0 -23 -16 23 c-8
12 -22 22 -29 22 -15 0 -17 10 -8 34 7 18 31 10 44 -15z m3890 -434 c79 -28
216 -202 178 -226 -9 -6 -16 2 -23 24 -24 79 -96 147 -180 172 -56 17 -67 24
-60 36 9 13 36 11 85 -6z m-180 -65 c18 0 71 -63 65 -78 -8 -21 -85 54 -84 83
0 11 3 14 6 8 2 -7 8 -13 13 -13z m-7552 -189 c12 -15 13 -14 8 2 -4 12 0 17
14 17 10 0 21 -9 25 -19 7 -24 44 -35 52 -15 3 8 11 14 19 14 22 0 105 -30
167 -61 33 -16 63 -26 68 -23 5 3 39 -18 75 -46 355 -283 296 -758 -109 -874
-67 -19 -246 -23 -323 -6 -47 10 -183 57 -251 86 -39 18 -44 17 -37 -1 4 -10
0 -15 -10 -15 -19 0 -85 40 -105 64 -8 9 -24 22 -35 27 -26 12 40 -48 114
-104 52 -40 82 -69 76 -75 -2 -1 -34 15 -72 35 -45 25 -101 69 -160 128 -83
83 -95 101 -154 220 -50 102 -77 142 -121 188 -32 31 -65 57 -75 57 -16 0 -16
-1 0 -19 16 -18 16 -19 -18 -23 -23 -2 -41 1 -50 11 -12 12 -18 12 -31 1 -8
-7 -18 -10 -22 -6 -4 3 8 12 25 18 18 7 32 18 32 24 0 20 48 44 88 44 41 0 73
-22 52 -35 -7 -4 3 -22 27 -48 21 -23 48 -55 60 -72 l22 -30 -4 35 c-11 96
-12 119 -3 128 5 5 17 24 26 42 26 51 42 50 43 -2 1 -42 1 -41 13 19 7 35 16
66 20 70 5 5 5 -5 2 -22 -5 -24 -2 -33 14 -43 11 -7 20 -8 20 -3 0 6 -7 14
-15 19 -14 7 -14 11 0 39 17 35 48 66 43 43 -2 -7 2 -14 8 -17 7 -2 10 5 7 21
-6 28 28 72 47 61 8 -5 4 -11 -12 -19 -32 -16 -30 -48 4 -57 15 -4 41 -17 58
-29 46 -33 50 -15 6 25 -26 24 -36 40 -32 51 4 9 1 23 -5 31 -17 19 5 43 23
25 17 -17 33 -15 19 2 -9 10 -7 17 5 27 14 11 18 11 29 -4 17 -23 28 -22 16 2
-9 16 -4 21 37 39 26 11 65 23 87 27 63 11 75 15 75 31 0 15 9 17 34 8 9 -3
13 -11 9 -17 -3 -6 -1 -7 5 -3 7 4 12 14 12 22 0 19 38 9 58 -15z m-338 4
c-14 -8 -29 -14 -35 -14 -5 0 1 6 15 14 14 8 30 14 35 14 6 0 -1 -6 -15 -14z
m190 5 c0 -5 -6 -10 -14 -10 -8 0 -18 5 -21 10 -3 6 3 10 14 10 12 0 21 -4 21
-10z m7540 -4 c0 -7 7 -19 15 -26 14 -11 13 -15 -6 -28 -18 -12 -23 -13 -30
-1 -8 12 -13 6 -11 -12 1 -6 -90 -59 -102 -59 -3 0 -3 6 0 13 3 8 -6 18 -19
24 -19 9 -29 8 -45 -3 -24 -17 -19 -40 10 -50 19 -6 19 -6 1 -18 -21 -15 -60
-30 -50 -20 4 4 2 13 -4 20 -6 8 -9 21 -5 29 7 19 1 19 -18 -1 -9 -8 -16 -11
-16 -6 0 20 170 122 203 122 8 0 20 7 27 15 16 19 50 20 50 1z m-7940 -26 c0
-5 -5 -10 -11 -10 -5 0 -7 5 -4 10 3 6 8 10 11 10 2 0 4 -4 4 -10z m78 -7
c-10 -2 -26 -2 -35 0 -10 3 -2 5 17 5 19 0 27 -2 18 -5z m-34 -28 l29 -6 -61
-62 c-61 -62 -62 -62 -112 -59 -48 4 -73 22 -29 22 11 0 17 5 14 10 -3 6 -1
10 4 10 6 0 10 3 9 8 -5 13 37 59 60 66 12 4 22 11 22 16 0 8 5 8 64 -5z
m-260 -108 c-31 -29 -63 -56 -70 -60 -8 -4 -14 -15 -14 -22 0 -9 -10 -15 -25
-15 -23 0 -19 6 40 61 35 34 63 65 60 69 -6 9 46 30 58 23 4 -2 -18 -28 -49
-56z m2242 16 c-10 -10 -19 5 -10 18 6 11 8 11 12 0 2 -7 1 -15 -2 -18z m-804
-35 c-7 -7 -12 -8 -12 -2 0 14 12 26 19 19 2 -3 -1 -11 -7 -17z m799 9 c-6 -8
-8 -17 -4 -20 3 -4 1 -7 -5 -7 -7 0 -12 9 -12 20 0 12 7 20 16 20 13 0 14 -3
5 -13z m-2361 -27 c0 -5 -3 -10 -7 -11 -93 -7 -101 -5 -60 11 30 12 67 12 67
0z m228 -5 c23 -4 42 -10 42 -14 0 -4 -27 -3 -60 2 -33 5 -60 14 -60 19 0 5 8
7 18 4 9 -2 36 -8 60 -11z m242 5 c0 -5 -2 -10 -4 -10 -3 0 -8 5 -11 10 -3 6
-1 10 4 10 6 0 11 -4 11 -10z m1150 -20 c0 -5 -4 -10 -10 -10 -5 0 -10 5 -10
10 0 6 5 10 10 10 6 0 10 -4 10 -10z m-1753 -17 c-9 -9 -19 -14 -23 -11 -10
10 6 28 24 28 15 0 15 -1 -1 -17z m65 -23 c-17 -16 -34 -30 -38 -30 -4 0 7 16
26 35 18 19 36 33 38 30 2 -2 -9 -18 -26 -35z m158 10 c-27 -20 -36 -19 -27 5
4 8 17 15 29 15 l23 0 -25 -20z m-255 -20 c-3 -5 -11 -10 -16 -10 -6 0 -7 5
-4 10 3 6 11 10 16 10 6 0 7 -4 4 -10z m2685 -10 c-13 -8 -13 -10 1 -10 9 0
21 -11 27 -25 6 -14 18 -25 27 -25 8 0 15 -6 15 -14 0 -9 15 -17 40 -21 27 -5
40 -12 41 -23 0 -10 3 -12 5 -5 7 16 54 -5 54 -24 0 -8 11 -13 28 -12 24 0 25
1 7 9 -11 5 -14 9 -7 9 6 1 12 8 12 16 0 8 4 15 9 15 12 0 22 -27 15 -43 -2
-7 2 -21 10 -32 18 -25 102 -29 111 -6 6 15 20 7 20 -12 0 -7 12 -13 27 -15
18 -2 25 -8 22 -17 -3 -7 3 -16 15 -20 12 -3 21 -14 22 -23 0 -9 2 -25 4 -34
2 -10 -1 -18 -6 -18 -5 0 -15 -12 -21 -27 l-11 -28 -7 25 -6 25 -13 -23 c-8
-15 -18 -21 -27 -18 -12 4 -14 1 -9 -14 5 -16 2 -20 -15 -20 -12 0 -18 5 -15
10 3 6 -1 10 -10 10 -10 0 -13 -5 -9 -12 4 -7 -2 -4 -14 6 -26 22 -132 36
-132 17 0 -6 5 -11 10 -11 12 0 9 -22 -4 -32 -16 -11 -47 14 -35 29 8 8 5 17
-10 30 -26 22 -27 37 -2 30 15 -4 18 0 17 18 -2 12 -6 27 -10 33 -9 15 -36 16
-36 2 0 -5 -7 -10 -15 -10 -8 0 -14 -5 -12 -11 1 -6 -9 -18 -23 -27 -17 -10
-21 -11 -12 -2 18 21 15 35 -5 19 -15 -13 -16 -12 -11 9 4 12 2 20 -3 16 -5
-3 -9 2 -9 11 0 22 -48 39 -66 24 -14 -11 -48 -17 -124 -22 -31 -2 -35 1 -32
20 2 16 -1 21 -10 18 -7 -3 -19 4 -26 15 -11 18 -10 20 10 20 21 0 21 0 2 14
-14 11 -21 11 -27 3 -5 -7 -6 -4 -2 8 4 11 10 28 12 38 6 20 23 23 23 5 0 -9
4 -8 10 2 7 11 8 6 4 -16 -5 -29 -3 -32 28 -43 42 -15 42 -15 46 -2 2 6 -4 11
-13 11 -9 0 -14 4 -11 9 4 5 2 11 -3 13 -13 5 -24 48 -12 48 5 0 22 -16 37
-35 18 -25 23 -39 17 -48 -12 -14 -13 -47 -2 -47 11 0 39 30 39 42 0 6 -7 16
-16 23 -14 10 -13 14 16 38 17 15 29 31 25 37 -4 6 1 7 12 3 17 -6 17 -5 2 13
-9 10 -14 24 -12 31 3 7 -3 10 -15 6 -11 -2 -23 0 -26 6 -4 6 -2 11 4 11 7 0
10 6 7 14 -8 20 1 26 37 26 24 0 27 -3 16 -10z m-2560 -14 c-6 -8 -21 -16 -33
-18 -12 -2 -22 -8 -22 -15 0 -6 -3 -15 -7 -19 -5 -4 -8 -3 -8 2 0 5 -19 8 -42
7 l-43 -2 35 11 c19 6 53 19 75 29 48 23 62 24 45 5z m224 -25 c45 -18 27 -21
-39 -5 -33 7 -76 11 -95 9 -28 -4 -31 -3 -15 5 24 12 109 7 149 -9z m7443 -33
c-3 -8 -6 -5 -6 6 -1 11 2 17 5 13 3 -3 4 -12 1 -19z m-5202 -18 c3 -5 2 -10
-4 -10 -5 0 -13 5 -16 10 -3 6 -2 10 4 10 5 0 13 -4 16 -10z m-2662 -15 c-19
-8 -33 -22 -34 -32 0 -11 -3 -13 -6 -5 -2 6 -12 12 -21 13 -20 1 56 39 78 38
8 0 0 -6 -17 -14z m2687 -25 c0 -5 -4 -10 -10 -10 -5 0 -10 5 -10 10 0 6 5 10
10 10 6 0 10 -4 10 -10z m-160 -20 c0 -5 -4 -10 -10 -10 -5 0 -10 5 -10 10 0
6 5 10 10 10 6 0 10 -4 10 -10z m251 -140 c6 0 7 5 4 10 -3 6 -1 10 4 10 6 0
11 -11 11 -25 0 -27 -16 -32 -42 -11 -14 10 -15 15 -5 25 8 8 13 8 15 1 2 -5
8 -10 13 -10z m-2971 -10 c0 -5 -4 -10 -10 -10 -5 0 -10 5 -10 10 0 6 5 10 10
10 6 0 10 -4 10 -10z m7790 -73 l81 -79 -37 -55 c-46 -66 -48 -67 -76 -52 -34
18 -148 130 -148 145 0 20 74 124 86 121 7 -1 49 -37 94 -80z m-5737 44 c7
-17 11 -48 9 -70 l-4 -40 -24 28 c-13 16 -24 39 -24 52 0 19 2 21 10 9 7 -11
10 -7 10 18 0 40 7 41 23 3z m957 -31 c0 -5 -5 -10 -11 -10 -5 0 -7 5 -4 10 3
6 8 10 11 10 2 0 4 -4 4 -10z m30 -20 c-20 -13 -33 -13 -25 0 3 6 14 10 23 10
15 0 15 -2 2 -10z m-100 -46 c0 -2 -7 -4 -15 -4 -8 0 -15 4 -15 10 0 5 7 7 15
4 8 -4 15 -8 15 -10z m200 -24 c0 -11 -4 -20 -10 -20 -5 0 -10 9 -10 20 0 11
5 20 10 20 6 0 10 -9 10 -20z m4753 -45 c-3 -9 -8 -14 -10 -11 -3 3 -2 9 2 15
9 16 15 13 8 -4z m-32 -52 c-8 -15 -10 -15 -11 -2 0 17 10 32 18 25 2 -3 -1
-13 -7 -23z m-5796 -29 c-23 -36 -31 -22 -9 16 10 17 20 26 22 20 2 -6 -4 -22
-13 -36z m-75 -84 c0 -11 -2 -20 -4 -20 -2 0 -6 9 -9 20 -3 11 -1 20 4 20 5 0
9 -9 9 -20z m-735 -148 c-5 -5 -77 18 -89 29 -5 4 14 1 42 -8 29 -9 50 -19 47
-21z m-339 -62 c-5 -22 -13 -40 -16 -40 -13 1 -36 72 -32 100 l4 31 28 -26
c25 -24 26 -29 16 -65z m927 50 c3 -11 1 -18 -4 -14 -5 3 -9 12 -9 20 0 20 7
17 13 -6z m-546 4 c-3 -3 -12 -4 -19 -1 -8 3 -5 6 6 6 11 1 17 -2 13 -5z
m-513 -20 c9 -23 7 -34 -5 -34 -6 0 -9 7 -5 15 3 8 1 15 -4 15 -6 0 -10 5 -10
10 0 16 17 12 24 -6z m1018 -36 c-8 -8 -9 -4 -5 13 4 13 8 18 11 10 2 -7 -1
-18 -6 -23z m-819 5 c-7 -3 -13 -9 -13 -14 0 -6 5 -7 10 -4 6 3 10 -1 10 -9 0
-20 -19 -21 -26 -1 -5 11 -10 13 -19 5 -10 -8 -15 -8 -20 0 -12 19 13 38 43
32 15 -3 21 -7 15 -9z m-258 -23 c3 -5 1 -10 -4 -10 -6 0 -11 5 -11 10 0 6 2
10 4 10 3 0 8 -4 11 -10z m-108 -22 c-3 -8 -6 -5 -6 6 -1 11 2 17 5 13 3 -3 4
-12 1 -19z m1148 -8 c-10 -11 -22 -17 -26 -14 -15 9 -10 22 9 27 33 9 35 7 17
-13z m-68 -45 c-23 -22 -33 -21 -72 9 -20 15 -20 15 1 10 12 -3 35 1 50 9 38
20 51 1 21 -28z m-1367 -36 c0 -26 -21 -69 -31 -63 -10 6 -12 55 -3 78 8 20
34 9 34 -15z m-93 -94 c-2 -57 -17 -47 -17 11 0 27 4 43 10 39 5 -3 8 -25 7
-50z m174 8 c-9 -16 -10 -16 -11 -1 0 9 3 25 7 35 7 16 8 17 11 1 2 -10 -1
-25 -7 -35z m-121 6 c0 -6 -4 -7 -10 -4 -5 3 -10 11 -10 16 0 6 5 7 10 4 6 -3
10 -11 10 -16z m54 -44 c4 -10 -1 -15 -14 -15 -20 0 -26 11 -13 23 10 11 20 8
27 -8z m-64 -45 c0 -5 -4 -10 -10 -10 -5 0 -10 5 -10 10 0 6 5 10 10 10 6 0
10 -4 10 -10z m-174 -51 c-9 -22 -15 -27 -15 -16 -1 21 18 61 25 54 3 -3 -2
-20 -10 -38z m-99 -71 c-3 -8 -6 -5 -6 6 -1 11 2 17 5 13 3 -3 4 -12 1 -19z
m-142 -108 c-3 -5 -11 -10 -16 -10 -6 0 -7 5 -4 10 3 6 11 10 16 10 6 0 7 -4
4 -10z m-95 -104 c0 -3 -4 -8 -10 -11 -5 -3 -10 -1 -10 4 0 6 5 11 10 11 6 0
10 -2 10 -4z m1577 -394 c9 -6 6 -18 -13 -45 -17 -25 -23 -44 -19 -58 5 -16 3
-20 -6 -17 -18 7 -13 36 12 71 12 16 18 31 16 34 -12 12 -46 -10 -57 -37 -7
-17 -16 -30 -21 -30 -16 0 -10 21 17 56 26 33 47 41 71 26z m-127 -47 c0 -8
-7 -15 -15 -15 -26 0 -18 20 13 29 1 1 2 -6 2 -14z"/>
<path d="M5481 6614 c0 -31 35 -204 42 -211 4 -3 13 -1 21 6 12 10 12 20 -1
69 -8 31 -15 76 -16 99 0 24 -4 43 -8 43 -4 0 -14 3 -23 6 -11 4 -16 0 -15
-12z"/>
<path d="M5990 6458 c26 -6 55 -21 69 -36 16 -17 33 -26 48 -24 13 2 23 -1 23
-7 0 -5 9 -8 21 -6 15 3 19 0 15 -11 -4 -11 -1 -14 13 -9 24 7 51 -4 51 -21 0
-8 14 -17 33 -21 24 -5 70 -45 193 -167 108 -108 181 -173 224 -198 35 -21 66
-35 69 -32 3 3 -3 10 -14 16 -45 26 -343 345 -400 429 -37 55 -67 89 -77 89
-10 0 -38 -5 -62 -12 -38 -10 -54 -9 -99 5 -30 9 -76 17 -103 16 l-49 -1 45
-10z"/>
<path d="M5805 6450 c-4 -6 13 -10 44 -10 28 0 51 5 51 10 0 6 -20 10 -44 10
-25 0 -48 -4 -51 -10z"/>
<path d="M5728 6443 c6 -2 18 -2 25 0 6 3 1 5 -13 5 -14 0 -19 -2 -12 -5z"/>
<path d="M5185 6223 c4 -15 15 -80 24 -143 15 -103 19 -115 37 -118 21 -3 21
-2 7 80 -7 46 -16 110 -18 143 -3 56 -5 60 -31 63 -25 3 -26 2 -19 -25z"/>
<path d="M4703 6227 c3 -8 13 -76 23 -151 16 -124 26 -151 46 -131 3 3 -3 59
-13 126 -10 66 -18 130 -16 142 1 16 -4 23 -22 25 -18 3 -22 0 -18 -11z"/>
<path d="M7220 6126 c0 -9 32 -36 42 -36 6 0 1 9 -12 20 -23 20 -30 24 -30 16z"/>
<path d="M7282 6090 c-18 -29 -15 -38 4 -12 9 13 14 25 12 27 -2 2 -9 -5 -16
-15z"/>
<path d="M5510 6051 c0 -9 24 -21 42 -21 6 0 6 6 -2 15 -14 16 -40 20 -40 6z"/>
<path d="M7330 6022 c0 -5 7 -16 16 -23 14 -12 16 -11 13 5 -4 20 -29 35 -29
18z"/>
<path d="M5484 5872 c5 -20 54 -284 56 -299 0 -2 9 -3 21 -3 19 0 20 4 14 53
-4 28 -14 84 -22 122 -9 39 -15 84 -15 100 1 26 -4 33 -29 42 -31 12 -31 12
-25 -15z"/>
<path d="M7892 5783 c12 -29 71 -113 79 -113 5 0 9 -5 9 -10 0 -13 3 -17 71
-92 28 -32 58 -58 65 -58 8 0 14 -3 14 -7 0 -18 68 -86 86 -88 25 -1 118 -90
109 -104 -11 -18 11 -12 28 7 25 27 21 43 -20 89 -43 46 -78 67 -95 57 -7 -4
-8 -3 -4 4 4 7 1 12 -9 12 -8 0 -18 7 -21 15 -4 8 -13 15 -21 15 -21 0 -43 25
-43 49 0 12 -4 21 -10 21 -10 0 -160 146 -160 156 0 9 -23 30 -47 42 -25 14
-36 15 -31 5z"/>
<path d="M5465 5551 c-9 -8 17 -41 27 -35 7 4 6 10 -3 16 -10 7 -8 8 7 3 13
-3 24 -1 27 7 3 9 -5 13 -25 13 -16 0 -31 -2 -33 -4z"/>
<path d="M5606 5545 c-6 -17 17 -31 34 -20 5 3 10 13 10 21 0 19 -36 18 -44
-1z"/>
<path d="M5705 5553 c22 -3 46 -9 53 -15 15 -13 27 -4 17 11 -3 6 -30 10 -58
9 -47 -1 -48 -2 -12 -5z"/>
<path d="M5366 5541 c-4 -5 3 -7 14 -4 23 6 26 13 6 13 -8 0 -17 -4 -20 -9z"/>
<path d="M5427 5543 c-13 -12 -7 -33 8 -33 8 0 15 9 15 20 0 20 -11 26 -23 13z"/>
<path d="M5550 5546 c0 -2 9 -6 20 -9 11 -3 18 -1 14 4 -5 9 -34 13 -34 5z"/>
<path d="M5526 5533 c-10 -11 -7 -53 5 -53 5 0 7 5 4 10 -4 6 -2 17 5 25 11
13 -1 30 -14 18z"/>
<path d="M5580 5500 c0 -5 4 -10 9 -10 6 0 13 5 16 10 3 6 -1 10 -9 10 -9 0
-16 -4 -16 -10z"/>
<path d="M5720 5490 c0 -11 6 -20 14 -20 9 0 12 7 9 20 -3 11 -9 20 -14 20 -5
0 -9 -9 -9 -20z"/>
<path d="M5453 5470 c1 -11 5 -20 9 -20 4 0 8 9 8 20 0 11 -4 20 -9 20 -6 0
-9 -9 -8 -20z"/>
<path d="M5628 5473 c7 -3 16 -2 19 1 4 3 -2 6 -13 5 -11 0 -14 -3 -6 -6z"/>
<path d="M8470 5349 c0 -5 5 -7 10 -4 6 3 10 8 10 11 0 2 -4 4 -10 4 -5 0 -10
-5 -10 -11z"/>
<path d="M8390 5301 c-14 -14 -38 -36 -55 -48 -24 -17 -28 -24 -18 -34 11 -10
20 -6 48 21 25 24 35 29 35 18 0 -9 5 -20 11 -24 17 -10 28 16 18 43 -4 12 -6
30 -3 38 9 22 -8 16 -36 -14z"/>
<path d="M8250 5206 c0 -2 7 -7 16 -10 8 -3 12 -2 9 4 -6 10 -25 14 -25 6z"/>
<path d="M8341 5184 c-22 -22 -23 -24 -5 -23 40 4 55 -1 52 -18 -2 -10 -5 -20
-8 -23 -3 -3 -10 -14 -16 -24 -14 -26 -34 -32 -34 -10 0 13 -3 15 -11 7 -12
-12 -3 -53 12 -53 5 0 9 -9 9 -20 0 -11 7 -20 15 -20 16 0 10 -30 -9 -42 -7
-5 -2 -17 15 -34 26 -26 27 -26 55 -8 16 10 30 19 32 20 8 4 -12 34 -24 34 -8
0 -15 7 -15 15 -1 8 -2 20 -3 26 0 5 -12 19 -26 29 -19 14 -21 20 -10 23 8 2
32 10 53 17 21 6 41 9 44 6 3 -3 12 1 19 9 17 17 7 46 -15 43 -10 -2 -15 3
-13 15 2 13 -4 17 -26 17 -33 0 -62 24 -40 33 7 3 4 5 -7 5 -11 0 -31 -11 -44
-24z"/>
<path d="M8286 5168 c3 -4 9 -8 15 -8 5 0 9 4 9 8 0 5 -7 9 -15 9 -8 0 -12 -4
-9 -9z"/>
<path d="M8577 4818 c-7 -4 -27 -8 -44 -8 -18 0 -33 -4 -33 -10 0 -5 -6 -10
-14 -10 -8 0 -16 -7 -20 -15 -7 -19 5 -19 41 1 36 21 88 5 80 -25 -4 -17 -2
-17 22 -5 20 11 26 21 26 46 0 28 -4 33 -23 33 -13 0 -29 -3 -35 -7z"/>
<path d="M8719 4728 c-15 -16 -23 -19 -26 -10 -7 19 -29 14 -29 -8 0 -12 10
-23 28 -29 20 -7 27 -7 22 1 -4 5 6 20 21 32 18 15 24 25 17 30 -6 3 -21 -4
-33 -16z"/>
<path d="M8755 4659 c-11 -4 -15 -8 -10 -9 6 -1 1 -5 -10 -10 -13 -6 -15 -9
-5 -9 16 0 56 26 49 33 -2 2 -13 0 -24 -5z"/>
<path d="M8593 4389 c1 -10 6 -18 11 -16 16 5 18 24 2 30 -10 4 -14 0 -13 -14z"/>
<path d="M8650 4360 c0 -5 4 -10 9 -10 6 0 13 5 16 10 3 6 -1 10 -9 10 -9 0
-16 -4 -16 -10z"/>
<path d="M8585 4334 c9 -9 18 -14 21 -11 9 9 -6 27 -22 27 -13 0 -13 -2 1 -16z"/>
<path d="M8581 4236 c-9 -11 -9 -19 1 -35 16 -26 29 -26 59 -2 20 16 21 21 10
35 -17 20 -55 21 -70 2z"/>
<path d="M8183 3915 c-3 -9 -3 -19 1 -22 7 -7 36 16 36 28 0 15 -30 10 -37 -6z"/>
<path d="M8369 3724 c-11 -14 -10 -16 9 -12 13 1 23 7 23 13 1 17 -17 16 -32
-1z"/>
<path d="M2865 6670 c3 -5 10 -10 16 -10 5 0 9 5 9 10 0 6 -7 10 -16 10 -8 0
-12 -4 -9 -10z"/>
<path d="M1750 6395 c0 -2 9 -9 20 -15 16 -9 20 -8 20 5 0 8 -9 15 -20 15 -11
0 -20 -2 -20 -5z"/>
<path d="M1748 6268 c-4 -10 -10 -41 -12 -70 l-5 -53 14 55 c15 56 17 103 3
68z"/>
<path d="M3487 6253 c-10 -10 -8 -63 2 -63 14 0 33 28 26 40 -3 5 1 10 9 10 9
0 16 5 16 10 0 11 -43 14 -53 3z"/>
<path d="M2130 6050 c0 -5 5 -10 11 -10 5 0 7 5 4 10 -3 6 -8 10 -11 10 -2 0
-4 -4 -4 -10z"/>
<path d="M3720 5840 c0 -5 5 -10 10 -10 6 0 10 5 10 10 0 6 -4 10 -10 10 -5 0
-10 -4 -10 -10z"/>
<path d="M1666 5764 c-4 -14 -5 -28 -3 -31 3 -2 8 8 11 23 4 14 5 28 3 31 -3
2 -8 -8 -11 -23z"/>
<path d="M2591 5731 c-10 -6 -10 -10 -1 -16 13 -8 24 -1 19 14 -3 6 -10 7 -18
2z"/>
<path d="M1635 5670 c-4 -11 -18 -34 -32 -50 -13 -17 -21 -30 -16 -30 16 0 51
44 58 73 8 31 0 37 -10 7z"/>
<path d="M2548 5663 c-6 -15 -12 -30 -13 -33 0 -3 -11 -23 -22 -46 -13 -24
-20 -50 -16 -63 6 -22 6 -22 24 -2 11 11 19 23 19 27 0 4 10 18 22 31 14 15
22 36 22 64 1 50 -19 63 -36 22z"/>
<path d="M2863 4904 c-38 -32 -43 -40 -43 -79 0 -38 3 -44 26 -49 26 -7 30 -5
91 51 7 6 13 25 13 42 0 17 5 31 12 31 6 0 3 9 -7 20 -25 28 -44 25 -92 -16z"/>
<path d="M2215 4120 c3 -5 11 -10 16 -10 6 0 7 5 4 10 -3 6 -11 10 -16 10 -6
0 -7 -4 -4 -10z"/>
<path d="M2680 3989 c0 -5 5 -7 10 -4 6 3 10 8 10 11 0 2 -4 4 -10 4 -5 0 -10
-5 -10 -11z"/>
<path d="M1188 6823 c-28 -7 -21 -21 7 -15 14 2 22 8 19 13 -3 5 -6 8 -7 8 -1
-1 -10 -3 -19 -6z"/>
<path d="M7996 6485 c-3 -9 0 -15 9 -15 16 0 20 16 6 24 -5 3 -11 -1 -15 -9z"/>
<path d="M1358 4068 c9 -9 15 -9 24 0 9 9 7 12 -12 12 -19 0 -21 -3 -12 -12z"/>
<path d="M1640 4050 c0 -11 4 -20 9 -20 13 0 32 26 24 33 -13 14 -33 6 -33
-13z"/>
<path d="M1890 3950 c0 -22 -2 -26 -22 -48 -17 -17 -19 -25 -10 -34 10 -10 16
-7 29 12 19 27 27 80 12 80 -5 0 -9 -4 -9 -10z"/>
<path d="M1070 3880 c0 -5 7 -10 16 -10 8 0 12 5 9 10 -3 6 -10 10 -16 10 -5
0 -9 -4 -9 -10z"/>
<path d="M1390 3881 c0 -5 7 -12 16 -15 24 -9 28 -7 14 9 -14 17 -30 20 -30 6z"/>
<path d="M1364 3849 c-3 -6 -2 -15 3 -20 5 -5 9 -1 9 11 0 23 -2 24 -12 9z"/>
<path d="M1869 3833 c-13 -16 -12 -17 4 -4 9 7 17 15 17 17 0 8 -8 3 -21 -13z"/>
<path d="M1765 3820 c-3 -5 -1 -10 4 -10 6 0 11 5 11 10 0 6 -2 10 -4 10 -3 0
-8 -4 -11 -10z"/>
<path d="M1025 3790 c-8 -13 -3 -110 6 -116 5 -3 8 12 7 31 -1 22 4 40 13 46
12 7 12 9 0 9 -10 0 -11 3 -2 14 9 10 8 15 -3 19 -9 4 -18 2 -21 -3z"/>
<path d="M1425 3790 c3 -5 8 -10 11 -10 2 0 4 5 4 10 0 6 -5 10 -11 10 -5 0
-7 -4 -4 -10z"/>
<path d="M1740 3785 c0 -8 2 -15 4 -15 2 0 6 7 10 15 3 8 1 15 -4 15 -6 0 -10
-7 -10 -15z"/>
<path d="M1300 3780 c0 -5 5 -10 10 -10 6 0 10 5 10 10 0 6 -4 10 -10 10 -5 0
-10 -4 -10 -10z"/>
<path d="M1335 3770 c-3 -5 -1 -10 4 -10 6 0 11 5 11 10 0 6 -2 10 -4 10 -3 0
-8 -4 -11 -10z"/>
<path d="M1390 3770 c-12 -7 -12 -12 -2 -22 6 -6 12 -10 13 -7 0 2 2 12 4 22
4 20 4 19 -15 7z"/>
<path d="M1265 3740 c3 -5 8 -10 11 -10 2 0 4 5 4 10 0 6 -5 10 -11 10 -5 0
-7 -4 -4 -10z"/>
<path d="M1650 3675 c-8 -9 -8 -15 -2 -15 12 0 26 19 19 26 -2 2 -10 -2 -17
-11z"/>
<path d="M1546 3661 c-3 -5 1 -12 9 -15 11 -4 14 -13 9 -33 l-7 -28 21 25 c11
14 18 28 16 32 -10 15 -43 28 -48 19z"/>
<path d="M1041 3634 c0 -11 3 -14 6 -6 3 7 2 16 -1 19 -3 4 -6 -2 -5 -13z"/>
<path d="M1650 3622 c0 -10 45 -32 63 -32 16 1 -34 39 -50 40 -7 0 -13 -4 -13
-8z"/>
<path d="M1604 3597 c-1 -19 4 -22 33 -23 28 0 31 1 16 9 -10 6 -22 16 -26 24
-12 20 -22 16 -23 -10z"/>
<path d="M1050 3600 c0 -8 5 -22 10 -30 9 -13 10 -13 10 0 0 8 -5 22 -10 30
-9 13 -10 13 -10 0z"/>
<path d="M2130 3480 c0 -5 5 -10 10 -10 6 0 10 5 10 10 0 6 -4 10 -10 10 -5 0
-10 -4 -10 -10z"/>
<path d="M1315 3320 c-10 -11 -25 -20 -33 -20 -12 0 -12 -4 3 -20 l18 -20 24
22 c22 21 32 58 15 58 -5 0 -17 -9 -27 -20z"/>
<path d="M1970 3333 c0 -13 53 -63 67 -63 22 0 14 17 -21 44 -36 27 -46 31
-46 19z"/>
<path d="M2062 3260 c-24 -38 -6 -42 21 -5 13 18 14 25 5 25 -7 0 -19 -9 -26
-20z"/>
<path d="M3210 3824 c0 -8 5 -12 10 -9 6 3 10 10 10 16 0 5 -4 9 -10 9 -5 0
-10 -7 -10 -16z"/>
<path d="M3230 3800 c0 -5 5 -10 10 -10 6 0 10 5 10 10 0 6 -4 10 -10 10 -5 0
-10 -4 -10 -10z"/>
<path d="M3210 3730 c0 -5 5 -10 11 -10 5 0 7 5 4 10 -3 6 -8 10 -11 10 -2 0
-4 -4 -4 -10z"/>
<path d="M3233 3700 c-9 -13 -9 -21 -2 -26 13 -7 15 -5 23 24 9 27 -5 29 -21
2z"/>
<path d="M3460 3560 c0 -5 5 -10 10 -10 6 0 10 5 10 10 0 6 -4 10 -10 10 -5 0
-10 -4 -10 -10z"/>
<path d="M3460 3516 c0 -2 7 -6 15 -10 8 -3 15 -1 15 4 0 6 -7 10 -15 10 -8 0
-15 -2 -15 -4z"/>
<path d="M603 3763 c-7 -2 -13 -11 -13 -19 0 -9 -4 -12 -10 -9 -5 3 -10 2 -10
-3 0 -6 8 -13 17 -16 10 -4 14 -4 11 0 -9 9 14 32 28 27 6 -2 17 3 24 12 11
13 9 15 -11 14 -13 0 -30 -3 -36 -6z"/>
<path d="M9637 3763 c-7 -6 15 -43 25 -43 5 0 8 5 8 11 0 14 -26 40 -33 32z"/>
<path d="M9712 3710 c0 -14 2 -19 5 -12 2 6 2 18 0 25 -3 6 -5 1 -5 -13z"/>
<path d="M9690 3665 c0 -8 7 -15 15 -15 8 0 15 7 15 15 0 8 -7 15 -15 15 -8 0
-15 -7 -15 -15z"/>
<path d="M758 3583 c5 -21 7 -23 10 -9 2 10 0 22 -6 28 -6 6 -7 0 -4 -19z"/>
<path d="M381 3555 c1 -22 16 -48 22 -38 3 5 0 19 -8 29 -8 10 -14 15 -14 9z"/>
<path d="M766 3534 c-8 -22 -8 -44 2 -44 4 0 7 14 8 30 1 34 -1 37 -10 14z"/>
<path d="M320 3493 c0 -5 5 -15 10 -23 8 -12 10 -11 10 8 0 12 -4 22 -10 22
-5 0 -10 -3 -10 -7z"/>
<path d="M9681 3474 c0 -11 3 -14 6 -6 3 7 2 16 -1 19 -3 4 -6 -2 -5 -13z"/>
<path d="M861 3254 c0 -11 3 -14 6 -6 3 7 2 16 -1 19 -3 4 -6 -2 -5 -13z"/>
<path d="M301 3214 c0 -11 3 -14 6 -6 3 7 2 16 -1 19 -3 4 -6 -2 -5 -13z"/>
<path d="M550 3203 c0 -7 7 -27 14 -45 8 -18 18 -54 21 -80 3 -27 10 -48 16
-48 11 0 11 9 0 46 -18 56 -22 86 -11 79 18 -11 11 5 -15 33 -14 15 -25 21
-25 15z"/>
<path d="M962 3140 c0 -14 2 -19 5 -12 2 6 2 18 0 25 -3 6 -5 1 -5 -13z"/>
<path d="M190 3115 c0 -5 5 -17 10 -25 5 -8 10 -10 10 -5 0 6 -5 17 -10 25 -5
8 -10 11 -10 5z"/>
<path d="M710 3111 c0 -5 5 -13 10 -16 6 -3 10 -2 10 4 0 5 -4 13 -10 16 -5 3
-10 2 -10 -4z"/>
<path d="M840 3111 c0 -7 9 -24 20 -38 15 -20 20 -22 20 -9 0 9 -9 26 -20 38
-12 13 -20 16 -20 9z"/>
<path d="M352 3090 c0 -14 2 -19 5 -12 2 6 2 18 0 25 -3 6 -5 1 -5 -13z"/>
<path d="M760 3080 c0 -11 4 -20 9 -20 5 0 7 9 4 20 -3 11 -7 20 -9 20 -2 0
-4 -9 -4 -20z"/>
<path d="M521 3055 c0 -5 6 -21 14 -35 8 -14 14 -20 14 -15 0 6 -6 21 -14 35
-8 14 -14 21 -14 15z"/>
<path d="M932 3035 c0 -16 2 -22 5 -12 2 9 2 23 0 30 -3 6 -5 -1 -5 -18z"/>
<path d="M651 3015 c1 -40 1 -40 10 -10 5 18 5 33 -1 39 -7 7 -10 -4 -9 -29z"/>
<path d="M380 3025 c0 -8 5 -15 10 -15 6 0 10 7 10 15 0 8 -4 15 -10 15 -5 0
-10 -7 -10 -15z"/>
<path d="M685 3021 c-3 -5 -1 -12 5 -16 5 -3 10 1 10 9 0 18 -6 21 -15 7z"/>
<path d="M391 2973 c-1 -12 4 -25 9 -28 12 -7 12 2 0 30 -8 19 -9 19 -9 -2z"/>
<path d="M260 2970 c0 -8 5 -22 10 -30 9 -13 10 -13 10 0 0 8 -5 22 -10 30 -9
13 -10 13 -10 0z"/>
<path d="M667 2963 c-4 -3 -7 -20 -6 -37 l1 -31 9 34 c10 33 8 47 -4 34z"/>
<path d="M401 2864 c0 -11 3 -14 6 -6 3 7 2 16 -1 19 -3 4 -6 -2 -5 -13z"/>
<path d="M292 2772 c-1 -33 1 -43 8 -32 12 19 13 67 1 74 -5 3 -9 -16 -9 -42z"/>
<path d="M10 2791 c0 -5 5 -13 10 -16 6 -3 10 -2 10 4 0 5 -4 13 -10 16 -5 3
-10 2 -10 -4z"/>
<path d="M430 2776 c0 -9 5 -16 10 -16 6 0 10 4 10 9 0 6 -4 13 -10 16 -5 3
-10 -1 -10 -9z"/>
<path d="M57 2763 c-11 -10 -8 -53 3 -53 6 0 10 14 10 30 0 31 -2 35 -13 23z"/>
<path d="M280 2710 c0 -5 5 -10 10 -10 6 0 10 5 10 10 0 6 -4 10 -10 10 -5 0
-10 -4 -10 -10z"/>
<path d="M190 2635 c-7 -9 -8 -15 -2 -15 5 0 12 7 16 15 3 8 4 15 2 15 -2 0
-9 -7 -16 -15z"/>
<path d="M117 2603 c-4 -3 -7 -11 -7 -17 0 -6 5 -5 12 2 6 6 9 14 7 17 -3 3
-9 2 -12 -2z"/>
<path d="M8530 2564 c0 -8 5 -12 10 -9 6 3 10 10 10 16 0 5 -4 9 -10 9 -5 0
-10 -7 -10 -16z"/>
<path d="M8814 2517 c-2 -7 1 -26 8 -43 10 -21 21 -30 41 -31 22 -2 27 2 23
13 -3 9 -6 24 -6 35 0 12 -7 19 -20 19 -11 0 -20 5 -20 10 0 15 -20 12 -26 -3z"/>
<path d="M5 2509 c-11 -16 -1 -19 13 -3 7 8 8 14 3 14 -5 0 -13 -5 -16 -11z"/>
<path d="M9012 2346 c15 -14 30 -26 34 -26 11 0 -18 31 -40 42 -16 8 -15 4 6
-16z"/>
<path d="M8966 2247 c3 -10 9 -15 12 -12 3 3 0 11 -7 18 -10 9 -11 8 -5 -6z"/>
<path d="M9130 2190 c0 -5 5 -10 10 -10 6 0 10 5 10 10 0 6 -4 10 -10 10 -5 0
-10 -4 -10 -10z"/>
<path d="M9126 2125 c4 -8 8 -15 10 -15 2 0 4 7 4 15 0 8 -4 15 -10 15 -5 0
-7 -7 -4 -15z"/>
<path d="M9204 2008 c-5 -7 -3 -8 6 -3 8 5 11 3 8 -6 -6 -18 61 -54 75 -40 6
6 -2 15 -27 25 -20 8 -36 20 -36 25 0 15 -17 14 -26 -1z"/>
</g>
</svg>
